{
  "asset": {
    "version": "2.0",
    "generator": "GGEngine-test"
  },
  "scene": 0,
  "scenes": [
    {
      "name": "Scene",
      "nodes": [0]
    }
  ],
  "nodes": [
    {
      "name": "Quad",
      "mesh": 0
    }
  ],
  "meshes": [
    {
      "name": "Quad",
      "primitives": [
        {
          "attributes": {
            "POSITION": 1,
            "NORMAL": 2,
            "TEXCOORD_0": 3
          },
          "indices": 0,
          "mode": 4
        }
      ]
    }
  ],
  "accessors": [
    {
      "bufferView": 0,
      "byteOffset": 0,
      "componentType": 5123,
      "count": 6,
      "type": "SCALAR",
      "max": [3],
      "min": [0]
    },
    {
      "bufferView": 1,
      "byteOffset": 0,
      "componentType": 5126,
      "count": 4,
      "type": "VEC3",
      "min": [-0.5, 0.0, -0.5],
      "max": [0.5, 0.0, 0.5]
    },
    {
      "bufferView": 2,
      "byteOffset": 0,
      "componentType": 5126,
      "count": 4,
      "type": "VEC3",
      "min": [0.0, 1.0, 0.0],
      "max": [0.0, 1.0, 0.0]
    },
    {
      "bufferView": 3,
      "byteOffset": 0,
      "componentType": 5126,
      "count": 4,
      "type": "VEC2",
      "min": [0.0, 0.0],
      "max": [1.0, 1.0]
    }
  ],
  "bufferViews": [
    {
      "buffer": 0,
      "byteOffset": 0,
      "byteLength": 12,
      "target": 34963
    },
    {
      "buffer": 0,
      "byteOffset": 12,
      "byteLength": 48,
      "target": 34962
    },
    {
      "buffer": 0,
      "byteOffset": 60,
      "byteLength": 48,
      "target": 34962
    },
    {
      "buffer": 0,
      "byteOffset": 108,
      "byteLength": 32,
      "target": 34962
    }
  ],
  "buffers": [
    {
      "byteLength": 140,
      "uri": "data:application/octet-stream;base64,"
    }
  ]
}
