{
  "asset": {
    "version": "2.0",
    "generator": "GGEngine-test"
  },
  "scene": 0,
  "scenes": [
    {
      "name": "Scene",
      "nodes": [0]
    }
  ],
  "nodes": [
    {
      "name": "Icosphere",
      "mesh": 0
    }
  ],
  "meshes": [
    {
      "name": "Icosphere",
      "primitives": [
        {
          "attributes": {
            "POSITION": 1,
            "NORMAL": 2
          },
          "indices": 0,
          "mode": 4
        }
      ]
    }
  ],
  "accessors": [
    {
      "bufferView": 0,
      "byteOffset": 0,
      "componentType": 5123,
      "count": 60,
      "type": "SCALAR",
      "max": [11],
      "min": [0]
    },
    {
      "bufferView": 1,
      "byteOffset": 0,
      "componentType": 5126,
      "count": 12,
      "type": "VEC3",
      "min": [-0.85065080835204, -0.85065080835204, -0.85065080835204],
      "max": [0.85065080835204, 0.85065080835204, 0.85065080835204]
    },
    {
      "bufferView": 2,
      "byteOffset": 0,
      "componentType": 5126,
      "count": 12,
      "type": "VEC3",
      "min": [-0.85065080835204, -0.85065080835204, -0.85065080835204],
      "max": [0.85065080835204, 0.85065080835204, 0.85065080835204]
    }
  ],
  "bufferViews": [
    {
      "buffer": 0,
      "byteOffset": 0,
      "byteLength": 120,
      "target": 34963
    },
    {
      "buffer": 0,
      "byteOffset": 120,
      "byteLength": 144,
      "target": 34962
    },
    {
      "buffer": 0,
      "byteOffset": 264,
      "byteLength": 144,
      "target": 34962
    }
  ],
  "buffers": [
    {
      "byteLength": 408,
      "uri": "data:application/octet-stream;base64,"
    }
  ]
}
