{
  "asset": {
    "version": "2.0",
    "generator": "GGEngine-test"
  },
  "scene": 0,
  "scenes": [
    {
      "name": "Scene",
      "nodes": [0]
    }
  ],
  "nodes": [
    {
      "name": "Triangle",
      "mesh": 0
    }
  ],
  "meshes": [
    {
      "name": "Triangle",
      "primitives": [
        {
          "attributes": {
            "POSITION": 1,
            "COLOR_0": 2
          },
          "indices": 0,
          "mode": 4
        }
      ]
    }
  ],
  "accessors": [
    {
      "bufferView": 0,
      "byteOffset": 0,
      "componentType": 5123,
      "count": 3,
      "type": "SCALAR",
      "max": [2],
      "min": [0]
    },
    {
      "bufferView": 1,
      "byteOffset": 0,
      "componentType": 5126,
      "count": 3,
      "type": "VEC3",
      "min": [-0.5, -0.5, 0.0],
      "max": [0.5, 0.5, 0.0]
    },
    {
      "bufferView": 2,
      "byteOffset": 0,
      "componentType": 5126,
      "count": 3,
      "type": "VEC4",
      "min": [0.0, 0.0, 0.0, 1.0],
      "max": [1.0, 1.0, 1.0, 1.0]
    }
  ],
  "bufferViews": [
    {
      "buffer": 0,
      "byteOffset": 0,
      "byteLength": 6,
      "target": 34963
    },
    {
      "buffer": 0,
      "byteOffset": 8,
      "byteLength": 36,
      "target": 34962
    },
    {
      "buffer": 0,
      "byteOffset": 44,
      "byteLength": 48,
      "target": 34962
    }
  ],
  "buffers": [
    {
      "byteLength": 92,
      "uri": "data:application/octet-stream;base64,"
    }
  ]
}
